<svg width="58" height="11" viewBox="0 0 58 11" fill="none" xmlns="http://www.w3.org/2000/svg">
<path d="M4.07422 9.13477C4.01953 9.14648 3.97266 9.1543 3.93359 9.1582C3.89844 9.16602 3.86328 9.16992 3.82812 9.16992C2.82422 9.16992 2.0625 8.78711 1.54297 8.02148C1.02734 7.25586 0.769531 6.12695 0.769531 4.63477C0.769531 3.13867 1.02734 2.00781 1.54297 1.24219C2.0625 0.476562 2.82812 0.09375 3.83984 0.09375C4.85547 0.09375 5.62109 0.476562 6.13672 1.24219C6.65625 2.00781 6.91602 3.13867 6.91602 4.63477C6.91602 5.66211 6.79297 6.52344 6.54688 7.21875C6.30078 7.91016 5.94336 8.4043 5.47461 8.70117L6.56445 9.76758L5.38086 10.6465L4.07422 9.13477ZM3.83984 1.64648C3.39844 1.64648 3.07617 1.88281 2.87305 2.35547C2.66992 2.82422 2.56836 3.58398 2.56836 4.63477C2.56836 5.68164 2.66992 6.44141 2.87305 6.91406C3.07617 7.38281 3.39844 7.61719 3.83984 7.61719C4.28516 7.61719 4.60938 7.38281 4.8125 6.91406C5.01562 6.44141 5.11719 5.68164 5.11719 4.63477C5.11719 3.58398 5.01562 2.82422 4.8125 2.35547C4.60938 1.88281 4.28516 1.64648 3.83984 1.64648ZM8.08203 5.77148V0.251953H9.81055V6.20508C9.81055 6.64258 9.92188 6.98633 10.1445 7.23633C10.3672 7.48242 10.6758 7.60547 11.0703 7.60547C11.4648 7.60547 11.7734 7.48242 11.9961 7.23633C12.2188 6.98633 12.3301 6.64258 12.3301 6.20508V0.251953H14.0586V5.77148C14.0586 6.95898 13.8223 7.82227 13.3496 8.36133C12.877 8.90039 12.1172 9.16992 11.0703 9.16992C10.0273 9.16992 9.26758 8.90039 8.79102 8.36133C8.31836 7.82227 8.08203 6.95898 8.08203 5.77148ZM15.6992 1.77539V0.251953H20.9082V1.77539H19.168V7.47656H20.9082V9H15.6992V7.47656H17.4395V1.77539H15.6992ZM22.7246 0.251953H28.6426V1.68164L24.5879 7.47656H28.7246V9H22.5957V7.57031L26.5273 1.77539H22.7246V0.251953ZM39.9922 1.83398L39.1777 5.41406H40.8125L39.9922 1.83398ZM38.9375 0.251953H41.0527L43.4141 9H41.6855L41.1465 6.83789H38.832L38.3047 9H36.5762L38.9375 0.251953ZM46.291 1.70508V4.27148H47C47.5664 4.27148 47.9629 4.17578 48.1895 3.98438C48.4199 3.79297 48.5352 3.46094 48.5352 2.98828C48.5352 2.51562 48.4199 2.18359 48.1895 1.99219C47.9629 1.80078 47.5664 1.70508 47 1.70508H46.291ZM44.5625 0.251953H46.9355C48.1426 0.251953 49.0098 0.466797 49.5371 0.896484C50.0684 1.32617 50.334 2.02344 50.334 2.98828C50.334 3.95312 50.0684 4.65039 49.5371 5.08008C49.0098 5.50977 48.1426 5.72461 46.9355 5.72461H46.291V9H44.5625V0.251953ZM53.5215 1.70508V4.27148H54.2305C54.7969 4.27148 55.1934 4.17578 55.4199 3.98438C55.6504 3.79297 55.7656 3.46094 55.7656 2.98828C55.7656 2.51562 55.6504 2.18359 55.4199 1.99219C55.1934 1.80078 54.7969 1.70508 54.2305 1.70508H53.5215ZM51.793 0.251953H54.166C55.373 0.251953 56.2402 0.466797 56.7676 0.896484C57.2988 1.32617 57.5645 2.02344 57.5645 2.98828C57.5645 3.95312 57.2988 4.65039 56.7676 5.08008C56.2402 5.50977 55.373 5.72461 54.166 5.72461H53.5215V9H51.793V0.251953Z" fill="#748ffc"/>
<path d="M-7 10.0254H65.2988V10.5527H-7V10.0254Z" fill="#748ffc"/>
</svg>
